<?xml version="1.0" encoding="UTF-8" standalone="no"?>
<svg
   xmlns:dc="http://purl.org/dc/elements/1.1/"
   xmlns:cc="http://creativecommons.org/ns#"
   xmlns:rdf="http://www.w3.org/1999/02/22-rdf-syntax-ns#"
   xmlns:svg="http://www.w3.org/2000/svg"
   xmlns="http://www.w3.org/2000/svg"
   xmlns:sodipodi="http://sodipodi.sourceforge.net/DTD/sodipodi-0.dtd"
   xmlns:inkscape="http://www.inkscape.org/namespaces/inkscape"
   width="100.00311"
   version="1.1"
   height="108.39745"
   id="svg137"
   inkscape:version="0.91 r13725"
   sodipodi:docname="Internet-web-browser.svg">
  <metadata
     id="metadata171">
    <rdf:RDF>
      <cc:Work
         rdf:about="">
        <dc:format>image/svg+xml</dc:format>
        <dc:type
           rdf:resource="http://purl.org/dc/dcmitype/StillImage" />
        <dc:title></dc:title>
      </cc:Work>
    </rdf:RDF>
  </metadata>
  <sodipodi:namedview
     pagecolor="#ffffff"
     bordercolor="#666666"
     borderopacity="1"
     objecttolerance="10"
     gridtolerance="10"
     guidetolerance="10"
     inkscape:pageopacity="0"
     inkscape:pageshadow="2"
     inkscape:window-width="1920"
     inkscape:window-height="1020"
     id="namedview169"
     showgrid="false"
     fit-margin-top="0"
     fit-margin-left="0"
     fit-margin-right="0"
     fit-margin-bottom="0"
     inkscape:zoom="3.4766083"
     inkscape:cx="71.981214"
     inkscape:cy="118.75855"
     inkscape:window-x="0"
     inkscape:window-y="31"
     inkscape:window-maximized="1"
     inkscape:current-layer="svg137" />
  <defs
     id="defs139">
    <radialGradient
       id="radialGradient4120"
       gradientUnits="userSpaceOnUse"
       cy="63.965"
       cx="15.116"
       gradientTransform="scale(1.644,0.60828)"
       r="12.289">
      <stop
         id="stop4116"
         offset="0" />
      <stop
         id="stop4118"
         stop-opacity="0"
         offset="1" />
    </radialGradient>
    <radialGradient
       id="radialGradient4356"
       gradientUnits="userSpaceOnUse"
       cy="10.476"
       cx="11.827"
       gradientTransform="scale(1.1795,0.84779)"
       r="32.665001">
      <stop
         id="stop4352"
         stop-color="#fff"
         offset="0" />
      <stop
         id="stop4354"
         stop-color="#fff"
         stop-opacity="0"
         offset="1" />
    </radialGradient>
    <radialGradient
       id="radialGradient293"
       gradientUnits="userSpaceOnUse"
       cy="12.142"
       cx="15.601"
       gradientTransform="scale(0.99999,1)"
       r="43.527">
      <stop
         id="stop4128"
         stop-color="#fff"
         offset="0" />
      <stop
         id="stop4130"
         stop-color="#fff"
         stop-opacity=".16495"
         offset="1" />
    </radialGradient>
    <radialGradient
       id="radialGradient377"
       gradientUnits="userSpaceOnUse"
       cy="15.716"
       cx="18.247999"
       gradientTransform="scale(0.99999,1)"
       r="29.993">
      <stop
         id="stop3964"
         stop-color="#d3e9ff"
         offset="0" />
      <stop
         id="stop4134"
         stop-color="#d3e9ff"
         offset=".15517" />
      <stop
         id="stop4346"
         stop-color="#4074ae"
         offset=".75" />
      <stop
         id="stop3966"
         stop-color="#36486c"
         offset="1" />
    </radialGradient>
    <radialGradient
       id="radialGradient636"
       fx="18.934"
       fy="17.809999"
       gradientUnits="userSpaceOnUse"
       cy="17.486"
       cx="18.634001"
       gradientTransform="matrix(1.0185,0,0,0.94748,-0.080952,0.030883)"
       r="40.693001">
      <stop
         id="stop4752"
         stop-color="#fff"
         offset="0" />
      <stop
         id="stop4758"
         stop-color="#fefefe"
         offset=".37931" />
      <stop
         id="stop4754"
         stop-color="#1d1d1d"
         offset="1" />
    </radialGradient>
  </defs>
  <g
     id="g7357"
     transform="matrix(2.4749568,0,0,2.4749568,-11.501124,-8.8974697)">
    <path
       transform="matrix(1,0,0,1.2432,0,-10.272)"
       d="m 45.053,38.909 a 20.203,7.4751 0 1 1 -40.406,0 20.203,7.4751 0 1 1 40.406,0 z"
       id="path4112"
       style="fill:url(#radialGradient4120)"
       inkscape:connector-curvature="0" />
    <path
       id="path160"
       d="m 43.96,23.485 c 0,10.71 -8.682,19.392 -19.39,19.392 -10.71,0 -19.391,-8.682 -19.391,-19.392 -3e-4,-10.709 8.681,-19.39 19.391,-19.39 10.708,2e-4 19.39,8.681 19.39,19.39 z"
       style="fill:url(#radialGradient377);stroke:#39396c"
       inkscape:connector-curvature="0" />
    <path
       transform="matrix(0.83594,0,0,1,9.8869,0)"
       d="m 30.709,15.271 a 12.93,9.2934 0 1 1 -25.86,0 12.93,9.2934 0 1 1 25.86,0 z"
       id="path4348"
       style="opacity:0.42000002;fill:url(#radialGradient4356)"
       inkscape:connector-curvature="0" />
    <path
       id="path163"
       d="m 18.519,14.641 0.429,-0.647 -0.643,-0.484 0.214,1.131 m -0.356,13.336 -0.572,-1.132 -1.071,-0.242 -0.572,-1.535 -1.428,0.161 -1.213,-0.888 -1.286,1.131 0,0.178 c -0.389,-0.112 -0.867,-0.127 -1.214,-0.34 l -0.286,-0.808 0,-0.889 -0.8564,0.08 c 0.0715,-0.566 0.1425,-1.131 0.2145,-1.697 l -0.5004,0 -0.4993,0.647 -0.5003,0.242 -0.7143,-0.403 -0.0715,-0.89 0.1429,-0.97 1.0716,-0.807 0.8567,0 0.1425,-0.486 1.071,0.242 0.786,0.971 0.143,-1.618 1.357,-1.131 0.499,-1.212 1,-0.404 0.571,-0.808 1.285,-0.244 0.644,-0.969 -1.929,0 1.214,-0.566 0.857,0 1.214,-0.405 0.143,-0.483 -0.429,-0.405 -0.5,-0.162 0.143,-0.484 -0.357,-0.728 -0.857,0.323 0.143,-0.646 -0.999,-0.566 -0.786,1.373 0.071,0.485 -0.785,0.324 -0.5,1.051 -0.214,-0.97 L 12.235,11.731 12.02,11.004 13.806,9.9524 14.592,9.2252 14.663,8.3364 14.235,8.0937 13.663,8.0126 13.307,8.9019 c 0,0 -0.598,0.117 -0.751,0.155 -1.961,1.8071 -5.9232,5.7081 -6.8437,13.071 0.0365,0.171 0.6673,1.161 0.6673,1.161 l 1.4995,0.889 1.4995,0.404 0.6434,0.809 0.999,0.727 0.571,-0.08 0.429,0.193 0,0.13 -0.571,1.535 -0.429,0.647 0.143,0.324 -0.357,1.211 1.285,2.345 1.285,1.132 0.572,0.807 -0.072,1.698 0.429,0.969 -0.429,1.86 c 0,0 -0.033,-0.012 0.021,0.174 0.056,0.186 2.288,1.426 2.43,1.32 0.142,-0.107 0.263,-0.201 0.263,-0.201 l -0.143,-0.403 0.571,-0.566 0.215,-0.566 0.928,-0.325 0.714,-1.778 -0.214,-0.484 0.499,-0.727 1.072,-0.243 0.571,-1.294 -0.143,-1.615 0.857,-1.213 0.143,-1.212 c -1.172,-0.582 -2.335,-1.18 -3.499,-1.779 m -3.427,-18.994 -0.358,0.8888 0.715,0 0.357,-0.8083 c 0.308,-0.2177 0.615,-0.4369 0.928,-0.6466 l 0.715,0.2428 c 0.475,0.3233 0.951,0.6466 1.428,0.9694 L 19.234,8.9829 18.448,8.6596 18.091,7.9319 16.734,7.7703 16.663,7.3659 16.02,7.528 15.734,8.0936 15.377,7.366 15.235,7.6893 15.306,8.4976 14.735,8.9829 M 26.517,5.9926 24.66,5.265 l -2.141,0.2423 -2.643,0.7271 -0.5,0.4854 1.643,1.1311 0,0.6466 -0.643,0.6466 0.857,1.6987 0.57,-0.324 0.716,-1.1316 c 1.103,-0.341 2.092,-0.7276 3.141,-1.2126 l 0.857,-2.182 m -0.785,3.3136 -0.072,0.4845 0.501,0.3231 0.855,-0.5654 -0.427,-0.485 -0.572,0.3238 -0.285,-0.081 m 2.714,3.4766 -0.286,-0.729 -0.501,0.163 0.144,0.888 0.643,-0.322 m 14.969,7.799 0,0 -0.535,0.606 c -0.328,-0.386 -0.696,-0.711 -1.07,-1.051 l -0.822,0.121 -0.75,-0.848 0,1.049 0.643,0.487 0.428,0.484 0.571,-0.646 c 0.144,0.269 0.286,0.539 0.429,0.808 l 0,0.808 -0.643,0.727 -1.179,0.809 -0.892,0.89 -0.571,-0.648 0.285,-0.727 -0.57,-0.647 -0.965,-2.061 -0.821,-0.928 -0.215,0.241 0.323,1.173 0.606,0.687 c 0.346,0.999 0.689,1.955 1.144,2.91 0.705,0 1.369,-0.075 2.07,-0.163 l 0,0.566 -0.857,2.102 -0.786,0.888 -0.642,1.376 0,2.262 0.215,0.89 -0.357,0.403 -0.787,0.486 -0.821,0.686 0.679,0.768 -0.929,0.81 0.179,0.523 -1.393,1.578 -0.928,0 -0.786,0.485 -0.5,0 0,-0.647 -0.213,-1.295 c -0.277,-0.811 -0.564,-1.617 -0.857,-2.423 0,-0.595 0.035,-1.184 0.071,-1.779 l 0.358,-0.807 -0.501,-0.971 0.036,-1.334 -0.679,-0.767 0.34,-1.111 -0.553,-0.627 -0.965,0 -0.321,-0.364 -0.964,0.607 -0.393,-0.446 -0.893,0.768 c -0.606,-0.687 -1.213,-1.374 -1.821,-2.061 l -0.713,-1.698 0.642,-0.969 -0.356,-0.404 0.784,-1.86 c 0.645,-0.802 1.318,-1.571 2,-2.343 l 1.214,-0.324 1.357,-0.161 0.928,0.243 1.321,1.332 0.465,-0.524 0.641,-0.081 1.215,0.404 0.929,0 0.642,-0.566 0.286,-0.404 -0.644,-0.404 -1.071,-0.08 c -0.298,-0.413 -0.574,-0.847 -0.927,-1.213 l -0.358,0.161 -0.143,1.052 -0.643,-0.728 -0.141,-0.809 -0.714,-0.564 -0.287,0 0.715,0.807 -0.286,0.728 -0.571,0.161 0.357,-0.727 -0.644,-0.323 -0.57,-0.646 -1.072,0.241 -0.142,0.323 -0.643,0.405 -0.357,0.889 -0.892,0.444 -0.394,-0.444 -0.427,0 0,-1.455 0.928,-0.486 0.714,0 -0.144,-0.565 -0.57,-0.566 0.963,-0.202 0.536,-0.606 0.428,-0.728 0.786,0 -0.215,-0.565 0.501,-0.323 0,0.647 1.071,0.241 1.07,-0.888 0.072,-0.405 0.928,-0.646 c -0.336,0.042 -0.672,0.072 -1,0.162 l 0,-0.728 0.357,-0.8087 -0.357,0 -0.784,0.7272 -0.215,0.4045 0.215,0.566 -0.358,0.969 -0.571,-0.323 -0.499,-0.565 -0.786,0.565 -0.286,-1.293 1.356,-0.8886 0,-0.4854 0.858,-0.5655 1.356,-0.3238 0.929,0.3238 1.713,0.3233 -0.427,0.4845 -0.929,0 0.929,0.9697 0.713,-0.8076 0.217,-0.3554 c 0,0 2.738,2.454 4.303,5.138 1.565,2.685 2.299,5.85 2.299,6.493 z M 17.305,6.9618 17.662,6.639 18.377,6.4773 c 0.489,-0.238 0.98,-0.3982 1.499,-0.5661 l -0.285,-0.485 -0.922,0.1324 -0.435,0.4342 -0.718,0.1041 -0.639,0.2998 -0.31,0.1501 -0.19,0.2538 0.928,0.1612 m -0.714,2.6674 0.714,0.4848 0.572,0 0,-0.5654 -0.714,-0.3233 -0.572,0.4039 m 12.14,2.9908 -0.143,0.97 0.785,-0.162 0.571,-0.565 -0.5,-0.485 c -0.167,-0.447 -0.36,-0.865 -0.57,-1.293 l -0.428,0 0,0.484 0.285,0.323 0,0.728"
       inkscape:connector-curvature="0"
       style="fill-opacity:0.70999995" />
    <path
       id="path165"
       d="m 18.317,14.439 0.429,-0.647 -0.643,-0.484 0.214,1.131 m -3.784,-5.6579 -0.358,0.8888 0.715,0 0.357,-0.8083 C 15.555,8.6438 15.862,8.4247 16.175,8.215 l 0.715,0.2428 c 0.475,0.3233 0.951,0.6466 1.427,0.9694 L 19.032,8.7811 18.246,8.4578 17.889,7.7301 16.532,7.5684 16.461,7.1641 15.818,7.3262 15.532,7.8918 15.175,7.1642 15.033,7.4875 15.104,8.2958 14.533,8.7811 m 3.427,18.994 -0.571,-1.132 -1.071,-0.242 -0.572,-1.535 -1.428,0.161 -1.213,-0.888 -1.286,1.131 0,0.178 c -0.389,-0.112 -0.867,-0.127 -1.214,-0.34 l -0.286,-0.808 0,-0.889 -0.8564,0.08 c 0.0715,-0.566 0.1424,-1.131 0.2144,-1.697 l -0.5003,0 -0.4993,0.647 -0.5003,0.241 -0.7143,-0.402 -0.0715,-0.89 0.1429,-0.97 1.0716,-0.808 0.8567,0 0.1424,-0.485 1.0711,0.242 0.786,0.971 0.143,-1.618 1.357,-1.131 0.499,-1.212 1,-0.404 0.571,-0.808 1.285,-0.244 0.644,-0.969 -1.929,0 1.214,-0.566 0.857,0 1.214,-0.405 0.143,-0.483 -0.429,-0.405 -0.5,-0.162 0.143,-0.485 -0.357,-0.727 -0.857,0.323 0.143,-0.646 -1,-0.5665 -0.785,1.3735 0.071,0.485 -0.785,0.324 -0.5,1.051 -0.214,-0.97 -1.357,-0.566 -0.215,-0.727 L 13.604,9.7505 14.389,9.0233 14.461,8.1345 14.033,7.8917 13.461,7.8107 13.105,8.7 c 0,0 -0.598,0.117 -0.751,0.1549 -1.961,1.8072 -5.9232,5.7082 -6.8437,13.071 0.0365,0.171 0.6672,1.161 0.6672,1.161 l 1.4995,0.889 1.4995,0.404 0.6433,0.809 0.9992,0.727 0.571,-0.08 0.429,0.193 0,0.13 -0.571,1.535 -0.429,0.647 0.143,0.324 -0.357,1.211 1.285,2.345 1.285,1.132 0.572,0.807 -0.072,1.698 0.429,0.969 -0.429,1.86 c 0,0 -0.033,-0.012 0.021,0.174 0.056,0.186 2.288,1.426 2.43,1.32 0.142,-0.107 0.263,-0.201 0.263,-0.201 l -0.143,-0.403 0.571,-0.566 0.215,-0.566 0.928,-0.325 0.714,-1.778 -0.214,-0.484 0.499,-0.727 1.072,-0.243 0.571,-1.294 -0.143,-1.615 0.857,-1.213 0.143,-1.212 c -1.172,-0.582 -2.335,-1.18 -3.499,-1.779 m 8.355,-21.984 -1.857,-0.7276 -2.141,0.2422 -2.643,0.7272 -0.5,0.4854 1.643,1.1311 0,0.6466 -0.643,0.6466 0.857,1.6987 0.57,-0.324 0.716,-1.1316 C 23.42,8.8444 24.409,8.4579 25.458,7.9729 L 26.315,5.7908 M 25.53,9.1045 25.458,9.589 25.959,9.9123 26.814,9.3467 26.387,8.8617 25.815,9.1855 25.53,9.1045 m 17.683,11.276 0,0 -0.535,0.606 c -0.328,-0.386 -0.696,-0.711 -1.07,-1.051 l -0.822,0.121 -0.75,-0.848 0,1.049 0.643,0.487 0.428,0.484 0.571,-0.646 c 0.144,0.269 0.286,0.539 0.429,0.808 l 0,0.808 -0.643,0.727 -1.179,0.809 -0.892,0.89 -0.571,-0.648 0.285,-0.727 -0.57,-0.647 -0.965,-2.061 -0.821,-0.928 -0.215,0.241 0.323,1.173 0.606,0.687 c 0.346,0.999 0.689,1.955 1.144,2.91 0.705,0 1.369,-0.075 2.07,-0.163 l 0,0.566 -0.857,2.102 -0.786,0.888 -0.642,1.376 0,2.262 0.215,0.89 -0.357,0.403 -0.787,0.486 -0.821,0.686 0.679,0.768 -0.929,0.81 0.179,0.523 -1.393,1.578 -0.928,0 -0.786,0.485 -0.5,0 0,-0.647 -0.213,-1.295 c -0.277,-0.811 -0.564,-1.617 -0.857,-2.423 0,-0.595 0.035,-1.184 0.071,-1.779 l 0.358,-0.807 -0.501,-0.971 0.036,-1.334 -0.679,-0.767 0.34,-1.111 -0.553,-0.627 -0.965,0 -0.321,-0.364 -0.964,0.607 -0.393,-0.446 -0.893,0.768 c -0.606,-0.687 -1.213,-1.374 -1.821,-2.061 l -0.713,-1.698 0.642,-0.969 -0.357,-0.404 0.785,-1.86 c 0.645,-0.802 1.318,-1.571 2,-2.343 l 1.214,-0.324 1.357,-0.161 0.928,0.243 1.321,1.332 0.465,-0.524 0.641,-0.081 1.215,0.404 0.928,0 0.643,-0.566 0.286,-0.404 -0.644,-0.404 -1.071,-0.08 c -0.298,-0.413 -0.574,-0.847 -0.927,-1.213 l -0.358,0.161 -0.143,1.052 -0.643,-0.728 -0.141,-0.809 -0.714,-0.564 -0.287,0 0.715,0.807 -0.286,0.728 -0.571,0.161 0.357,-0.727 -0.644,-0.323 -0.57,-0.646 -1.072,0.241 -0.142,0.323 -0.643,0.405 -0.357,0.889 -0.892,0.444 -0.394,-0.444 -0.427,0 0,-1.455 0.928,-0.486 0.714,0 -0.144,-0.565 -0.57,-0.566 0.963,-0.202 0.536,-0.606 0.428,-0.728 0.786,0 -0.215,-0.565 0.501,-0.323 0,0.646 1.071,0.242 1.07,-0.888 0.072,-0.405 0.928,-0.646 c -0.336,0.042 -0.672,0.072 -1,0.162 l 0,-0.7284 0.357,-0.8083 -0.357,0 -0.784,0.7272 -0.215,0.4045 0.215,0.566 -0.358,0.969 -0.571,-0.323 -0.499,-0.565 -0.786,0.565 -0.286,-1.293 1.356,-0.8886 0,-0.4854 0.858,-0.5655 1.356,-0.3238 0.929,0.3238 1.713,0.3233 -0.427,0.4845 -0.929,0 0.929,0.9699 0.713,-0.8078 0.217,-0.3555 c 0,0 2.738,2.4541 4.303,5.1381 1.565,2.685 2.299,5.85 2.299,6.493 z M 17.103,6.7605 17.46,6.4377 18.175,6.276 c 0.489,-0.2379 0.98,-0.3981 1.499,-0.566 l -0.285,-0.485 -0.922,0.1324 -0.435,0.4341 -0.719,0.1042 -0.638,0.2998 -0.31,0.1501 -0.19,0.2537 0.928,0.1612 m -0.714,2.6675 0.714,0.485 0.572,0 0,-0.5656 -0.714,-0.3233 -0.572,0.4039 m 12.14,2.9908 -0.143,0.97 0.785,-0.162 0.571,-0.565 -0.5,-0.485 c -0.167,-0.447 -0.36,-0.865 -0.57,-1.293 l -0.428,0 0,0.484 0.285,0.323 0,0.728 m -0.285,0.163 -0.286,-0.729 -0.501,0.163 0.144,0.888 0.643,-0.322"
       style="fill:url(#radialGradient636)"
       inkscape:connector-curvature="0" />
    <path
       id="path167"
       d="m 42.975,23.486 c 0,10.165 -8.241,18.406 -18.406,18.406 C 14.404,41.892 6.163,33.651 6.163,23.486 6.1634,13.32 14.404,5.08 24.569,5.08 34.734,5.0799 42.975,13.32 42.975,23.486 Z"
       style="fill:none;stroke:url(#radialGradient293)"
       inkscape:connector-curvature="0" />
  </g>
</svg>
